<svg xmlns="http://www.w3.org/2000/svg" width="430" height="430" fill="none" viewBox="0 0 430 430"><path fill="#ebe6ef" d="M348.13 191.33v184.29H81.87V191.17L215 70.38l23.04 20.93z"/><path fill="#ebe6ef" d="M238.04 91.31 103.72 213.17v162.45H81.87V191.17L215 70.38z" opacity=".5" style="mix-blend-mode:multiply"/><path fill="#b26836" d="M169.1 375.62V238.03h91.8v137.59z"/><path fill="#b26836" d="M189.28 237.98H169.1v137.64h20.18z" opacity=".5" style="mix-blend-mode:multiply"/><path fill="#3a3347" d="M270.66 103.51V68.87h47.14v78.34z"/><path stroke="#121331" stroke-linecap="round" stroke-linejoin="round" stroke-width="7" d="M348.13 191.33v184.29H81.87V191.17L215 70.38l23.04 20.93z"/><path fill="#3a3347" d="M285.91 68.87h-15.25v34.64l15.25 14.14z" opacity=".5" style="mix-blend-mode:multiply"/><path stroke="#121331" stroke-linecap="round" stroke-linejoin="round" stroke-width="7" d="M270.66 103.51V68.87h47.14v78.34z"/><path fill="#f24c00" d="M367.27 221.97 215 83.76 62.72 221.94l-16.8-18.52 160.7-145.8a12.51 12.51 0 0 1 16.8 0l160.66 145.84z"/><path stroke="#121331" stroke-linecap="round" stroke-linejoin="round" stroke-width="7" d="M367.27 221.97 215 83.76 62.72 221.94l-16.8-18.52 160.7-145.8a12.51 12.51 0 0 1 16.8 0l160.66 145.84zM169.1 375.62V238.03h91.8v137.59z"/></svg>